<?xml version="1.0" encoding="utf-8"?>
<!-- Generator: Adobe Illustrator 27.5.0, SVG Export Plug-In . SVG Version: 6.00 Build 0)  -->
<svg version="1.1" xmlns="http://www.w3.org/2000/svg" xmlns:xlink="http://www.w3.org/1999/xlink" x="0px" y="0px"
	 viewBox="0 0 3710 3710" style="enable-background:new 0 0 3710 3710;" xml:space="preserve">
<g id="Background">
	<g>
		<g>
			<rect style="fill:#FFFFFF;" width="3710" height="3710"/>
		</g>
	</g>
</g>
<g id="Illustration">
	<g>
		<linearGradient id="SVGID_1_" gradientUnits="userSpaceOnUse" x1="3468.8154" y1="3249.0657" x2="1418.637" y2="1455.1608">
			<stop  offset="0" style="stop-color:#B37CFF"/>
			<stop  offset="1" style="stop-color:#F895E7"/>
		</linearGradient>
		<path style="opacity:0.3;fill:url(#SVGID_1_);" d="M3120.392,2317.411c-264.966,623.887-970.773,973.393-1582.85,879.115
			c-99.597-15.342-372.646-61.039-614.393-276.627c-465.379-415.024-564.904-1236.824-189.497-1815.967
			c273.231-421.514,763.024-660.456,1228.425-648.504c100.247,2.574,484.437,18.441,822.072,296.848
			c49.592,40.893,158.972,138.065,257.55,292.221C3273.177,1406.486,3293.073,1910.816,3120.392,2317.411z"/>
		<g>
			
				<linearGradient id="SVGID_00000139260621951927761360000014505129355976319405_" gradientUnits="userSpaceOnUse" x1="376.4175" y1="2639.8191" x2="1666.1569" y2="2639.8191" gradientTransform="matrix(0.9613 0.2755 -0.2755 0.9613 735.7164 -1384.1506)">
				<stop  offset="0" style="stop-color:#A737D5"/>
				<stop  offset="1" style="stop-color:#EF497A"/>
			</linearGradient>
			<path style="fill:url(#SVGID_00000139260621951927761360000014505129355976319405_);" d="M594.859,483.183
				c-4.549-14.04,11.822-25.577,23.652-16.753c120.133,89.595,415.636,365.196,411.278,906.026
				c-5.468,678.552,161.711,906.92,352.185,1036.159c0,0-246.292-42.962-424.407-273.725
				C520.254,1568.311,675.738,732.815,594.859,483.183z"/>
			<path style="fill:#FFFFFF;" d="M701.226,682.837c22.049,72.964,42.647,146.324,60.534,220.333
				c18.272,73.901,34.296,148.323,47.976,223.137c13.393,74.86,25.379,149.96,34.157,225.458
				c9.117,75.455,14.983,151.216,20.607,227.302c6.045,76.011,11.703,152.619,25.221,228.881
				c13.42,76.114,36.141,151.85,72.027,221.188c8.965,17.279,18.279,34.461,28.513,50.923c9.933,16.659,20.607,32.883,31.566,48.908
				c22.084,31.95,46.325,62.489,72.723,91.09c52.948,57.076,114.548,106.045,180.804,145.883c6.974,4.193,16.025,1.938,20.219-5.035
				c4.117-6.847,2.017-15.7-4.662-19.987l-0.047-0.03c-15.841-10.146-31.546-20.46-46.737-31.439
				c-7.685-5.369-15.116-11.068-22.65-16.625c-7.315-5.835-14.859-11.388-21.986-17.443c-28.908-23.731-56.116-49.463-81.286-77.08
				c-50.557-54.926-93.166-117.691-127.565-183.871c-16.831-33.294-31.179-67.771-42.825-103.232
				c-11.62-35.474-20.532-71.895-27.372-108.852c-13.693-73.956-19.919-149.735-26.51-225.698
				c-6.691-75.971-13.937-152.269-24.311-228.149c-5.084-37.949-10.85-75.803-17.29-113.534
				c-3.111-18.883-6.588-37.703-10.03-56.526c-3.623-18.79-7.349-37.558-11.227-56.29c-15.652-74.908-33.583-149.301-53.838-223.024
				c-20.609-73.625-43.164-146.68-68.496-218.741c-0.725-2.06-2.98-3.143-5.04-2.418
				C701.699,678.668,700.623,680.827,701.226,682.837z"/>
		</g>
		<g>
			<g>
				
					<linearGradient id="SVGID_00000111161145119082441470000006886018436494287018_" gradientUnits="userSpaceOnUse" x1="-11415.5527" y1="-928.1776" x2="-9833.5361" y2="-928.1776" gradientTransform="matrix(0.2554 -0.967 0.967 0.2554 4292.9429 -8357.7793)">
					<stop  offset="0" style="stop-color:#CE1567"/>
					<stop  offset="1" style="stop-color:#7A1DBC"/>
				</linearGradient>
				<path style="fill:url(#SVGID_00000111161145119082441470000006886018436494287018_);" d="M923.677,2524.66
					c-8.839,25.717-41.069,34.049-61.499,16.103c-112.733-99.017-406.152-407.796-386.324-925.388
					c16.744-437.083-15.713-675.679-37.952-782.972c-4.703-22.688,22.292-38.192,39.549-22.732
					C667.852,980.246,1243.947,1592.811,923.677,2524.66z"/>
				<path style="fill:#FFFFFF;" d="M886.866,2525.481c-0.556,0.382-1.154,0.714-1.797,0.992c-5.378,2.334-11.631-0.134-13.965-5.512
					c-2.646-6.098-264.639-616.726-268.811-1225.513c-0.038-5.858,4.68-10.645,10.545-10.691
					c5.864-0.038,10.648,4.681,10.691,10.546c4.14,604.356,264.425,1211.148,267.052,1217.205
					C892.639,2517.246,890.97,2522.661,886.866,2525.481z"/>
			</g>
		</g>
		<g>
			<g>
				<g style="opacity:0.3;">
					
						<linearGradient id="SVGID_00000149339832327028208720000007823139718373513373_" gradientUnits="userSpaceOnUse" x1="818.3661" y1="1484.8535" x2="1305.5187" y2="1484.8535" gradientTransform="matrix(-0.6183 -0.7859 0.7859 -0.6183 1717.8187 2914.4517)">
						<stop  offset="0" style="stop-color:#B37CFF"/>
						<stop  offset="1" style="stop-color:#F895E7"/>
					</linearGradient>
					<path style="fill:url(#SVGID_00000149339832327028208720000007823139718373513373_);" d="M2523.56,1226.223
						c2.669,3.392,2.398,8.324-0.767,11.397c-6.919,6.723-14.234,13.244-21.739,19.384c-3.652,2.987-9.032,2.45-12.019-1.201
						c-0.035-0.045-0.069-0.088-0.103-0.131c-2.869-3.647-2.302-8.937,1.306-11.888c7.131-5.832,14.078-12.028,20.651-18.413
						c3.382-3.287,8.791-3.21,12.077,0.174C2523.18,1225.762,2523.376,1225.99,2523.56,1226.223z M2464.746,1271.792
						c0.207,0.262,0.4,0.541,0.579,0.833c2.461,4.024,1.194,9.282-2.83,11.743c-8.266,5.053-16.83,9.804-25.453,14.117
						c-4.218,2.111-9.328,0.411-11.461-3.815c-2.11-4.219-0.398-9.349,3.817-11.458c8.196-4.101,16.331-8.614,24.186-13.418
						C2457.316,1267.511,2462.106,1268.437,2464.746,1271.792z M2397.361,1303.278c0.588,0.747,1.06,1.607,1.381,2.559
						c1.501,4.471-0.903,9.314-5.374,10.818c-9.163,3.083-18.576,5.804-27.976,8.088c-4.585,1.111-9.198-1.705-10.316-6.282
						c-1.113-4.583,1.7-9.202,6.282-10.316c8.927-2.169,17.862-4.753,26.566-7.68
						C2391.441,1299.282,2395.191,1300.52,2397.361,1303.278z M2324.612,1318.908c0.971,1.235,1.613,2.753,1.78,4.432
						c0.466,4.693-2.963,8.876-7.655,9.342c-9.628,0.953-19.413,1.503-29.082,1.632c-4.712,0.059-8.586-3.711-8.654-8.426
						c-0.063-4.715,3.71-8.589,8.426-8.654c9.182-0.123,18.476-0.643,27.625-1.552
						C2320.066,1315.385,2322.868,1316.692,2324.612,1318.908z M2250.206,1317.924c1.363,1.732,2.058,3.986,1.761,6.344
						c-0.587,4.681-4.858,7.998-9.537,7.409c-9.575-1.203-19.236-2.832-28.708-4.847c-4.615-0.977-7.562-5.512-6.58-10.128
						c0.981-4.613,5.515-7.558,10.13-6.579c9.003,1.916,18.185,3.464,27.284,4.607
						C2246.88,1315.023,2248.865,1316.22,2250.206,1317.924z M2177.876,1300.505c1.765,2.243,2.367,5.318,1.322,8.198
						c-1.609,4.435-6.506,6.724-10.94,5.118c-9.087-3.296-18.148-7.022-26.925-11.079c-4.283-1.98-6.148-7.054-4.169-11.337
						c1.977-4.28,7.053-6.147,11.334-4.169c8.342,3.854,16.948,7.396,25.582,10.527
						C2175.636,1298.327,2176.924,1299.296,2177.876,1300.505z M1968.398,1067.12c0.731,0.93,1.279,2.024,1.578,3.247
						c2.181,8.912,4.781,17.85,7.73,26.562c1.511,4.467-0.885,9.315-5.351,10.825c-4.468,1.514-9.315-0.883-10.827-5.351
						c-3.105-9.175-5.845-18.588-8.143-27.973c-1.122-4.582,1.684-9.205,6.265-10.326
						C1963.009,1063.28,1966.391,1064.569,1968.398,1067.12z M2111.248,1267.512c2.191,2.785,2.492,6.761,0.466,9.905
						c-2.555,3.967-7.839,5.11-11.805,2.557c-8.128-5.234-16.127-10.885-23.776-16.798c-3.717-2.901-4.421-8.247-1.535-11.981
						c2.884-3.731,8.248-4.418,11.982-1.533c7.262,5.616,14.858,10.982,22.576,15.952
						C2109.976,1266.144,2110.677,1266.787,2111.248,1267.512z M1994.122,1136.928c0.349,0.443,0.66,0.926,0.924,1.449
						c4.123,8.203,8.658,16.336,13.472,24.175c2.467,4.021,1.21,9.28-2.809,11.748c-4.02,2.466-9.295,1.226-11.747-2.809
						c-5.064-8.249-9.835-16.807-14.176-25.438c-2.119-4.214-0.42-9.35,3.793-11.467
						C1987.267,1132.73,1991.663,1133.803,1994.122,1136.928z M2053.66,1220.463c2.665,3.387,2.399,8.31-0.755,11.385
						c-3.377,3.294-8.783,3.225-12.079-0.149c-6.742-6.914-13.277-14.212-19.419-21.694c-0.04-0.045-0.078-0.094-0.115-0.141
						c-2.865-3.642-2.303-8.922,1.293-11.877c3.647-2.994,9.027-2.467,12.02,1.181c5.836,7.105,12.044,14.036,18.451,20.604
						C2053.27,1219.995,2053.473,1220.225,2053.66,1220.463z"/>
					
						<linearGradient id="SVGID_00000180329627341859755280000013095568260763410095_" gradientUnits="userSpaceOnUse" x1="1329.1997" y1="1356.5474" x2="1357.6505" y2="1356.5474" gradientTransform="matrix(-0.6183 -0.7859 0.7859 -0.6183 1717.8187 2914.4517)">
						<stop  offset="0" style="stop-color:#B37CFF"/>
						<stop  offset="1" style="stop-color:#F895E7"/>
					</linearGradient>
					<path style="fill:url(#SVGID_00000180329627341859755280000013095568260763410095_);" d="M1959.467,1007.819
						c1.04,1.322,1.703,2.963,1.809,4.77c0.258,4.396,0.615,8.859,1.053,13.268c0.47,4.692-2.956,8.879-7.648,9.346
						c-4.693,0.471-8.885-2.953-9.346-7.65c-0.464-4.637-0.838-9.331-1.111-13.957c-0.278-4.707,3.315-8.752,8.021-9.029
						C1955.148,1004.396,1957.796,1005.695,1959.467,1007.819z"/>
				</g>
				<g style="opacity:0.3;">
					
						<linearGradient id="SVGID_00000043416503856969496040000000793263074212726428_" gradientUnits="userSpaceOnUse" x1="1476.8721" y1="1573.9513" x2="1496.3953" y2="1573.9513" gradientTransform="matrix(-0.6183 -0.7859 0.7859 -0.6183 1717.8187 2914.4517)">
						<stop  offset="0" style="stop-color:#B37CFF"/>
						<stop  offset="1" style="stop-color:#F895E7"/>
					</linearGradient>
					<path style="fill:url(#SVGID_00000043416503856969496040000000793263074212726428_);" d="M2046.849,762.545
						c2.549,3.24,2.442,7.939-0.442,11.066c-2.986,3.234-5.956,6.587-8.822,9.963c-3.054,3.596-8.444,4.034-12.038,0.982
						c-3.61-3.067-4.033-8.445-0.981-12.039c3.019-3.553,6.146-7.085,9.289-10.491c3.199-3.466,8.602-3.682,12.069-0.484
						C2046.263,761.855,2046.571,762.192,2046.849,762.545z"/>
					
						<linearGradient id="SVGID_00000087394955129725980050000011393649721908708762_" gradientUnits="userSpaceOnUse" x1="998.7891" y1="1796.022" x2="1500.5675" y2="1796.022" gradientTransform="matrix(-0.6183 -0.7859 0.7859 -0.6183 1717.8187 2914.4517)">
						<stop  offset="0" style="stop-color:#B37CFF"/>
						<stop  offset="1" style="stop-color:#F895E7"/>
					</linearGradient>
					<path style="fill:url(#SVGID_00000087394955129725980050000011393649721908708762_);" d="M2552.662,782.025
						c2.43,3.088,4.816,6.23,7.159,9.424c2.789,3.804,1.968,9.148-1.835,11.939c-3.803,2.79-9.175,1.961-11.939-1.833
						c-5.407-7.37-11.1-14.504-16.992-21.281c-3.091-3.568-2.718-8.953,0.84-12.048c3.562-3.097,8.957-2.719,12.05,0.841
						C2545.591,773.258,2549.196,777.619,2552.662,782.025z M2583.945,829.542c0.295,0.375,0.563,0.781,0.799,1.216
						c4.546,8.374,8.788,17.035,12.605,25.74c1.895,4.318-0.072,9.356-4.389,11.25c-4.321,1.894-9.373-0.071-11.252-4.391
						c-3.626-8.268-7.657-16.494-11.975-24.453c-2.25-4.144-0.713-9.329,3.43-11.578
						C2576.876,825.31,2581.419,826.331,2583.945,829.542z M2510.178,737.276c2.49,3.165,2.459,7.749-0.286,10.891
						c-3.105,3.553-8.5,3.915-12.053,0.812c-6.793-5.938-13.934-11.664-21.229-17.02c-3.797-2.798-4.62-8.138-1.828-11.939
						c2.794-3.802,8.139-4.62,11.941-1.828c7.681,5.641,15.202,11.673,22.357,17.924
						C2509.489,736.475,2509.854,736.865,2510.178,737.276z M2611.58,897.36c0.67,0.852,1.186,1.847,1.5,2.954
						c2.593,9.16,4.824,18.542,6.634,27.883c0.896,4.63-2.129,9.109-6.76,10.006c-4.633,0.898-9.112-2.125-10.008-6.76
						c-1.719-8.869-3.837-17.778-6.3-26.477c-1.287-4.538,1.354-9.259,5.891-10.543
						C2605.967,893.452,2609.504,894.721,2611.58,897.36z M2450.085,695.529c2.042,2.596,2.472,6.26,0.799,9.351
						c-2.246,4.148-7.429,5.69-11.578,3.444c-7.929-4.295-16.156-8.31-24.45-11.936c-4.322-1.889-6.296-6.923-4.404-11.247
						c1.89-4.32,6.923-6.291,11.244-4.402c8.732,3.816,17.393,8.043,25.743,12.565
						C2448.496,693.876,2449.386,694.641,2450.085,695.529z M2382.284,667.979c1.633,2.075,2.283,4.876,1.51,7.611
						c-1.285,4.538-6.006,7.176-10.544,5.891c-8.704-2.463-17.613-4.589-26.478-6.318c-4.631-0.896-7.653-5.379-6.75-10.015
						c0.903-4.63,5.387-7.65,10.017-6.75c9.331,1.82,18.705,4.056,27.864,6.65C2379.705,665.558,2381.208,666.61,2382.284,667.979z
						 M2310.091,655.865c1.242,1.578,1.935,3.597,1.812,5.761c-0.265,4.708-4.299,8.31-9.008,8.044
						c-9.04-0.511-18.197-0.648-27.223-0.403c-4.713,0.128-8.64-3.585-8.768-8.307c-0.126-4.714,3.59-8.639,8.307-8.768
						c9.497-0.256,19.138-0.115,28.648,0.423C2306.405,652.761,2308.628,654.006,2310.091,655.865z M2236.979,659.784
						c0.86,1.094,1.464,2.412,1.708,3.882c0.77,4.653-2.377,9.048-7.03,9.818c-8.928,1.476-17.891,3.351-26.645,5.573
						c-4.572,1.16-9.221-1.61-10.38-6.174c-1.161-4.573,1.605-9.22,6.177-10.38c9.22-2.341,18.66-4.315,28.058-5.87
						C2232.052,656.107,2235.115,657.415,2236.979,659.784z M2166.483,679.665c0.484,0.615,0.889,1.308,1.198,2.069
						c1.777,4.368-0.325,9.352-4.693,11.126c-8.361,3.401-16.687,7.202-24.75,11.304c-4.205,2.139-9.35,0.45-11.483-3.74
						c-2.14-4.204-0.464-9.346,3.741-11.485c8.488-4.318,17.254-8.321,26.056-11.899
						C2160.16,675.573,2164.189,676.75,2166.483,679.665z M2102.121,714.524c0.108,0.138,0.212,0.281,0.314,0.426
						c2.685,3.877,1.718,9.198-2.159,11.882c-5.474,3.79-10.894,7.794-16.117,11.903c-1.89,1.487-3.76,2.995-5.609,4.514
						c-3.644,2.996-9.027,2.473-12.021-1.171c-3.105-3.629-2.472-9.024,1.168-12.019c1.946-1.601,3.91-3.182,5.9-4.748
						c5.493-4.321,11.198-8.534,16.955-12.52C2094.284,710.206,2099.352,711.004,2102.121,714.524z"/>
					
						<linearGradient id="SVGID_00000012435364716840422250000008912083902697176978_" gradientUnits="userSpaceOnUse" x1="948.7733" y1="1901.7814" x2="976.8612" y2="1901.7814" gradientTransform="matrix(-0.6183 -0.7859 0.7859 -0.6183 1717.8187 2914.4517)">
						<stop  offset="0" style="stop-color:#B37CFF"/>
						<stop  offset="1" style="stop-color:#F895E7"/>
					</linearGradient>
					<path style="fill:url(#SVGID_00000012435364716840422250000008912083902697176978_);" d="M2623.608,969.804
						c1.05,1.335,1.713,2.992,1.813,4.813c0.25,4.617,0.406,9.326,0.465,13.998c0.06,4.717-3.714,8.589-8.43,8.648
						c-4.717,0.058-8.589-3.71-8.648-8.43c-0.057-4.437-0.206-8.911-0.442-13.294c-0.256-4.707,3.355-8.733,8.065-8.988
						C2619.319,966.396,2621.948,967.693,2623.608,969.804z"/>
				</g>
				<g>
					
						<linearGradient id="SVGID_00000108276552984469280870000002040877887362015899_" gradientUnits="userSpaceOnUse" x1="2316.1865" y1="2138.7031" x2="526.3538" y2="1352.9246" gradientTransform="matrix(-0.6183 -0.7859 0.7859 -0.6183 1717.8187 2914.4517)">
						<stop  offset="0" style="stop-color:#B37CFF"/>
						<stop  offset="1" style="stop-color:#F895E7"/>
					</linearGradient>
					<path style="fill:url(#SVGID_00000108276552984469280870000002040877887362015899_);" d="M2538.63,1021.994
						c0.371-1.661-0.353-3.377-1.803-4.269l-41.37-25.468c-0.234-22.686-4.087-45.499-11.775-67.545l30.267-37.961
						c1.062-1.332,1.161-3.19,0.249-4.628l-31.231-49.197c-0.913-1.438-2.638-2.138-4.293-1.744l-47.231,11.237
						c-16.68-16.338-35.684-29.532-56.115-39.396l-5.444-48.276c-0.191-1.692-1.434-3.077-3.096-3.448l-56.871-12.704
						c-1.663-0.371-3.377,0.353-4.269,1.803l-25.468,41.37c-22.686,0.234-45.499,4.087-67.545,11.775l-37.961-30.267
						c-1.331-1.062-3.189-1.162-4.627-0.249l-49.197,31.232c-1.438,0.912-2.138,2.637-1.743,4.294l11.237,47.232
						c-16.338,16.679-29.532,35.683-39.396,56.114l-48.276,5.444c-1.691,0.191-3.076,1.434-3.447,3.096l-12.703,56.871
						c-0.372,1.662,0.353,3.377,1.803,4.269l41.37,25.468c0.233,22.686,4.086,45.499,11.775,67.545l-30.268,37.961
						c-1.061,1.331-1.161,3.189-0.249,4.627l31.232,49.197c0.912,1.438,2.636,2.138,4.293,1.744l47.232-11.237
						c16.679,16.339,35.684,29.532,56.115,39.397l5.444,48.275c0.19,1.693,1.435,3.078,3.096,3.449l56.871,12.703
						c1.662,0.371,3.376-0.353,4.27-1.803l25.468-41.37c22.687-0.233,45.499-4.087,67.545-11.775l37.961,30.267
						c1.331,1.061,3.19,1.162,4.627,0.248l49.196-31.231c1.438-0.913,2.138-2.637,1.744-4.294l-11.237-47.232
						c16.338-16.679,29.531-35.683,39.397-56.114l48.275-5.444c1.693-0.191,3.077-1.434,3.449-3.096L2538.63,1021.994z"/>
					<path style="opacity:0.56;fill:#FFFFFF;" d="M2328.637,958.463c17.655,22.441,16.678,55.11-3.52,76.452
						c-22.204,23.459-59.348,24.48-82.806,2.279c-11.368-10.754-17.861-25.292-18.29-40.929
						c-0.432-15.639,5.254-30.512,16.01-41.875c22.204-23.459,59.348-24.48,82.806-2.28
						C2324.951,954.113,2326.887,956.239,2328.637,958.463z M2247.212,1022.351c1.363,1.733,2.86,3.376,4.49,4.92
						c17.984,17.022,46.468,16.236,63.488-1.747c17.022-17.986,16.25-46.469-1.747-63.49c-17.984-17.022-46.467-16.236-63.488,1.747
						c-8.247,8.714-12.606,20.115-12.276,32.107C2237.95,1005.634,2241.292,1014.825,2247.212,1022.351z"/>
					<path style="opacity:0.56;fill:#FFFFFF;" d="M2394.388,905.213c3.032,3.854,5.888,7.883,8.552,12.079l0,0
						c0.839,1.32,1.656,2.656,2.452,4.003c3.924,6.644,7.313,13.59,10.115,20.729c0.038,0.097,0.076,0.195,0.115,0.292
						c0.107,0.277,0.214,0.553,0.319,0.832c0.208,0.539,0.409,1.081,0.609,1.622c0.526,1.424,0.043,2.973-1.089,3.866
						c-0.275,0.216-0.59,0.394-0.935,0.521c-1.77,0.653-3.73-0.258-4.385-2.024c-3.359-9.109-7.723-17.915-12.97-26.177
						c-26.049-41.048-70.438-63.546-115.786-63.629c-25.223-0.05-50.742,6.839-73.569,21.332c-4.004,2.54-7.849,5.265-11.524,8.158
						c-24.738,19.466-41.886,46.622-48.839,77.758c-7.99,35.764-1.573,72.501,18.067,103.437
						c40.568,63.89,125.492,82.84,189.355,42.298c3.938-2.5,7.735-5.19,11.375-8.056c15.779-12.418,28.666-28.151,37.68-46.114
						c0.233-0.464,0.557-0.852,0.94-1.152c1.007-0.792,2.423-0.983,3.645-0.369c1.685,0.852,2.372,2.896,1.521,4.587
						c-9.464,18.859-22.993,35.379-39.558,48.416c-3.822,3.009-7.806,5.831-11.938,8.456
						c-67.051,42.567-156.236,22.624-198.787-44.402c-20.619-32.479-27.354-71.043-18.966-108.589
						c7.299-32.687,25.302-61.195,51.271-81.632c3.86-3.036,7.896-5.896,12.096-8.564c32.482-20.619,71.046-27.356,108.591-18.969
						C2345.438,861.223,2373.951,879.235,2394.388,905.213z"/>
				</g>
			</g>
			<g>
				<g style="opacity:0.3;">
					
						<linearGradient id="SVGID_00000183953971975306216680000016064400775352368305_" gradientUnits="userSpaceOnUse" x1="528.5847" y1="1890.5833" x2="542.4699" y2="1890.5833" gradientTransform="matrix(-0.6183 -0.7859 0.7859 -0.6183 1717.8187 2914.4517)">
						<stop  offset="0" style="stop-color:#B37CFF"/>
						<stop  offset="1" style="stop-color:#F895E7"/>
					</linearGradient>
					<path style="fill:url(#SVGID_00000183953971975306216680000016064400775352368305_);" d="M2880.643,1316.12
						c1.411,1.793,1.541,4.366,0.148,6.32c-2.596,3.648-5.339,7.268-8.153,10.756c-1.828,2.267-5.146,2.623-7.417,0.795
						c-2.279-1.822-2.623-5.15-0.795-7.417c2.68-3.324,5.295-6.774,7.774-10.255c1.687-2.372,4.98-2.925,7.356-1.238
						C2879.977,1315.382,2880.338,1315.733,2880.643,1316.12z"/>
					
						<linearGradient id="SVGID_00000020392572170542506470000009284031810636717238_" gradientUnits="userSpaceOnUse" x1="522.9639" y1="1734.5925" x2="795.1096" y2="1734.5925" gradientTransform="matrix(-0.6183 -0.7859 0.7859 -0.6183 1717.8187 2914.4517)">
						<stop  offset="0" style="stop-color:#B37CFF"/>
						<stop  offset="1" style="stop-color:#F895E7"/>
					</linearGradient>
					<path style="fill:url(#SVGID_00000020392572170542506470000009284031810636717238_);" d="M2854.175,1346.875
						c1.653,2.101,1.479,5.154-0.484,7.049c-5.544,5.358-11.428,10.492-17.485,15.257c-1.275,1.003-2.566,1.995-3.87,2.979
						c-2.331,1.752-5.646,1.096-7.39-1.038c-1.753-2.327-1.286-5.634,1.038-7.387c1.247-0.939,2.482-1.887,3.7-2.845
						c5.777-4.545,11.389-9.442,16.677-14.549c2.096-2.026,5.433-1.967,7.459,0.125
						C2853.945,1346.6,2854.065,1346.735,2854.175,1346.875z M2810.423,1379.821c0.154,0.196,0.3,0.406,0.428,0.626
						c1.456,2.525,0.592,5.751-1.931,7.209c-8.094,4.676-16.549,8.89-25.128,12.523c-2.683,1.138-5.78-0.133-6.914-2.799
						c-1.136-2.685,0.115-5.776,2.799-6.914c8.185-3.467,16.25-7.488,23.969-11.946
						C2805.944,1377.193,2808.827,1377.792,2810.423,1379.821z M2759.989,1401.172c0.414,0.526,0.733,1.14,0.929,1.822
						c0.795,2.802-0.837,5.718-3.639,6.513c-8.979,2.542-18.217,4.553-27.454,5.967c-2.883,0.443-5.568-1.529-6.012-4.417
						c-0.442-2.878,1.536-5.571,4.414-6.012c8.809-1.349,17.614-3.262,26.177-5.69
						C2756.522,1398.758,2758.706,1399.543,2759.989,1401.172z M2705.846,1409.472c0.676,0.859,1.088,1.933,1.126,3.106
						c0.082,2.911-2.213,5.343-5.124,5.425c-9.347,0.265-18.789-0.048-28.07-0.932c-2.9-0.278-5.022-2.859-4.748-5.752
						c0.274-2.9,2.848-5.026,5.752-4.751c8.844,0.845,17.855,1.143,26.766,0.89
						C2703.285,1407.407,2704.848,1408.203,2705.846,1409.472z M2651.32,1404.297c0.943,1.198,1.361,2.796,1.006,4.403
						c-0.627,2.843-3.443,4.638-6.288,4.012c-9.117-2.017-18.198-4.612-26.987-7.719c-2.753-0.967-4.189-3.983-3.217-6.73
						c0.972-2.747,3.986-4.188,6.73-3.217c8.388,2.964,17.048,5.441,25.749,7.362
						C2649.552,1402.683,2650.593,1403.372,2651.32,1404.297z M2599.71,1386.047c1.221,1.553,1.515,3.734,0.574,5.621
						c-1.3,2.605-4.467,3.661-7.074,2.363c-8.354-4.17-16.527-8.902-24.285-14.065c-2.427-1.627-3.081-4.891-1.469-7.316
						c1.612-2.425,4.889-3.083,7.312-1.469c7.4,4.924,15.188,9.434,23.153,13.409
						C2598.643,1384.949,2599.243,1385.453,2599.71,1386.047z M2554.139,1355.74c1.529,1.943,1.521,4.758-0.15,6.698
						c-1.901,2.207-5.232,2.455-7.441,0.555c-7.052-6.073-13.814-12.669-20.103-19.604c-1.924-2.196-1.79-5.5,0.369-7.453
						c2.157-1.956,5.493-1.792,7.451,0.365c5.994,6.62,12.444,12.91,19.168,18.7
						C2553.698,1355.228,2553.932,1355.477,2554.139,1355.74z M2502.977,1291.789c0.188,0.239,0.36,0.5,0.509,0.78
						c3.625,6.782,7.685,13.485,12.069,19.923c0.659,0.979,1.317,1.932,1.986,2.875c1.678,2.383,1.113,5.672-1.268,7.352
						c-2.383,1.687-5.752,1.153-7.353-1.265c-0.708-1.009-1.411-2.019-2.102-3.046c-4.578-6.728-8.835-13.754-12.635-20.868
						c-1.373-2.571-0.405-5.764,2.165-7.137C2498.637,1289.18,2501.424,1289.815,2502.977,1291.789z"/>
				</g>
				<g style="opacity:0.3;">
					
						<linearGradient id="SVGID_00000152965730390754246960000003377001044157551508_" gradientUnits="userSpaceOnUse" x1="644.4145" y1="1995.4828" x2="955.0248" y2="1995.4828" gradientTransform="matrix(-0.6183 -0.7859 0.7859 -0.6183 1717.8187 2914.4517)">
						<stop  offset="0" style="stop-color:#B37CFF"/>
						<stop  offset="1" style="stop-color:#F895E7"/>
					</linearGradient>
					<path style="fill:url(#SVGID_00000152965730390754246960000003377001044157551508_);" d="M2872.293,1046.969
						c1.781,2.263,1.414,5.547-0.833,7.364c-2.264,1.83-5.587,1.479-7.417-0.788c-5.512-6.823-11.486-13.366-17.759-19.449
						c-2.059-2.034-2.146-5.368-0.115-7.46c2.03-2.093,5.369-2.14,7.46-0.115c6.574,6.383,12.841,13.24,18.618,20.391
						C2872.263,1046.93,2872.279,1046.95,2872.293,1046.969z M2887.96,1068.941c0.118,0.15,0.226,0.304,0.329,0.469
						c4.876,7.781,9.328,15.939,13.233,24.244c1.237,2.638,0.108,5.777-2.529,7.016c-2.639,1.244-5.781,0.092-7.02-2.525
						c-3.726-7.926-7.974-15.709-12.625-23.137c-1.547-2.467-0.799-5.723,1.669-7.268
						C2883.328,1066.293,2886.317,1066.852,2887.96,1068.941z M2833.624,1009.479c1.446,1.838,1.537,4.486,0.06,6.441
						c-1.753,2.32-5.061,2.782-7.386,1.026c-7.004-5.288-14.384-10.195-21.945-14.582c-2.518-1.476-3.376-4.691-1.91-7.211
						c1.46-2.518,4.691-3.376,7.211-1.914c7.925,4.6,15.663,9.746,23.001,15.291
						C2833.027,1008.812,2833.35,1009.131,2833.624,1009.479z M2910.858,1117.724c0.371,0.471,0.667,1.015,0.867,1.618
						c2.864,8.731,5.217,17.728,6.99,26.738c0.564,2.859-1.298,5.632-4.157,6.196c-2.851,0.558-5.625-1.303-6.193-4.156
						c-1.693-8.591-3.936-17.166-6.665-25.492c-0.906-2.768,0.602-5.749,3.37-6.655
						C2907.232,1115.265,2909.526,1116.032,2910.858,1117.724z M2787.043,982.452c1.155,1.468,1.493,3.505,0.707,5.339
						c-1.147,2.682-4.248,3.922-6.925,2.777c-8.046-3.446-16.387-6.433-24.798-8.877c-2.803-0.813-4.406-3.743-3.592-6.54
						c0.814-2.797,3.743-4.406,6.54-3.592c8.816,2.567,17.564,5.697,26.001,9.307
						C2785.817,981.227,2786.516,981.782,2787.043,982.452z M2735.336,967.387c0.884,1.123,1.31,2.598,1.062,4.116
						c-0.471,2.875-3.184,4.825-6.058,4.353c-8.66-1.418-17.481-2.325-26.213-2.694c-2.914-0.122-5.174-2.586-5.049-5.493
						c0.122-2.911,2.58-5.168,5.489-5.045c9.158,0.385,18.404,1.333,27.479,2.82
						C2733.399,965.667,2734.549,966.387,2735.336,967.387z M2681.504,965.143c0.621,0.789,1.026,1.762,1.108,2.841
						c0.233,2.904-1.936,5.446-4.841,5.677c-8.745,0.689-17.525,1.927-26.092,3.675c-2.849,0.577-5.64-1.262-6.219-4.116
						c-0.582-2.855,1.258-5.64,4.115-6.223c8.982-1.829,18.191-3.129,27.364-3.857
						C2678.767,962.997,2680.45,963.803,2681.504,965.143z"/>
					
						<linearGradient id="SVGID_00000063621582274407650860000004871579111417020854_" gradientUnits="userSpaceOnUse" x1="610.2696" y1="2014.9087" x2="631.5123" y2="2014.9087" gradientTransform="matrix(-0.6183 -0.7859 0.7859 -0.6183 1717.8187 2914.4517)">
						<stop  offset="0" style="stop-color:#B37CFF"/>
						<stop  offset="1" style="stop-color:#F895E7"/>
					</linearGradient>
					<path style="fill:url(#SVGID_00000063621582274407650860000004871579111417020854_);" d="M2921.307,1170.837
						c0.629,0.8,1.033,1.789,1.112,2.88c0.325,4.503,0.515,9.036,0.573,13.474c0.036,2.912-2.295,5.306-5.208,5.343
						c-2.907,0.029-5.3-2.296-5.343-5.209c-0.052-4.232-0.237-8.557-0.543-12.854c-0.209-2.906,1.98-5.431,4.884-5.638
						C2918.594,1168.705,2920.26,1169.507,2921.307,1170.837z"/>
				</g>
				<g>
					
						<linearGradient id="SVGID_00000127044462767889729540000013451097382606960519_" gradientUnits="userSpaceOnUse" x1="2175.7632" y1="2458.0642" x2="385.9323" y2="1672.2863" gradientTransform="matrix(-0.6183 -0.7859 0.7859 -0.6183 1717.8187 2914.4517)">
						<stop  offset="0" style="stop-color:#B37CFF"/>
						<stop  offset="1" style="stop-color:#F895E7"/>
					</linearGradient>
					<path style="fill:url(#SVGID_00000127044462767889729540000013451097382606960519_);" d="M2865.04,1209.523
						c0.249-1.112-0.236-2.259-1.206-2.856l-27.683-17.042c-0.156-15.18-2.734-30.446-7.879-45.198l20.253-25.402
						c0.711-0.891,0.777-2.134,0.167-3.096l-20.898-32.92c-0.611-0.962-1.765-1.43-2.873-1.167l-31.605,7.52
						c-11.161-10.933-23.878-19.762-37.549-26.363l-3.642-32.304c-0.128-1.132-0.96-2.059-2.072-2.307l-38.055-8.501
						c-1.113-0.248-2.26,0.236-2.857,1.207l-17.042,27.683c-15.181,0.156-30.446,2.735-45.198,7.879l-25.401-20.253
						c-0.891-0.71-2.134-0.777-3.096-0.167l-32.921,20.899c-0.962,0.611-1.431,1.765-1.167,2.873l7.519,31.605
						c-10.933,11.161-19.762,23.878-26.362,37.549l-32.305,3.643c-1.132,0.128-2.058,0.96-2.307,2.071l-8.5,38.056
						c-0.249,1.112,0.236,2.259,1.206,2.857l27.684,17.042c0.155,15.18,2.734,30.446,7.879,45.198l-20.254,25.402
						c-0.71,0.891-0.778,2.134-0.167,3.096l20.899,32.921c0.611,0.962,1.764,1.43,2.873,1.167l31.605-7.52
						c11.161,10.933,23.878,19.762,37.55,26.363l3.643,32.303c0.127,1.133,0.96,2.06,2.072,2.308l38.055,8.501
						c1.112,0.248,2.259-0.236,2.857-1.207l17.042-27.682c15.181-0.156,30.446-2.735,45.198-7.88l25.402,20.254
						c0.89,0.71,2.134,0.777,3.096,0.166l32.92-20.898c0.962-0.611,1.431-1.765,1.167-2.873l-7.519-31.605
						c10.932-11.161,19.761-23.877,26.363-37.549l32.304-3.643c1.132-0.128,2.059-0.96,2.308-2.072L2865.04,1209.523z"/>
					<path style="opacity:0.56;fill:#FFFFFF;" d="M2725.114,1166.62c5.261,6.688,8.23,14.852,8.469,23.512
						c0.293,10.653-3.582,20.783-10.909,28.523c-15.116,15.976-40.417,16.673-56.401,1.554
						c-15.973-15.171-16.674-40.431-1.552-56.407c7.326-7.743,17.228-12.167,27.879-12.458c10.655-0.295,20.786,3.578,28.526,10.909
						C2722.572,1163.622,2723.905,1165.083,2725.114,1166.62z M2670.62,1209.363c0.878,1.116,1.846,2.179,2.905,3.184
						c11.757,11.121,30.367,10.608,41.491-1.146c5.386-5.692,8.24-13.145,8.021-20.979c-0.216-7.839-3.476-15.116-9.163-20.512l0,0
						c-5.694-5.388-13.147-8.238-20.98-8.023c-7.839,0.216-15.122,3.471-20.512,9.167
						C2662.263,1181.745,2661.774,1198.118,2670.62,1209.363z"/>
					<path style="opacity:0.56;fill:#FFFFFF;" d="M2770.928,1129.614c2.064,2.623,4.01,5.372,5.839,8.246
						c3.627,5.71,6.677,11.794,9.069,18.101c0.105,0.284,0.211,0.568,0.316,0.853c0.813,2.199,0.066,4.591-1.681,5.969
						c-0.425,0.334-0.91,0.608-1.444,0.805c-2.733,1.009-5.756-0.401-6.771-3.125c-2.178-5.909-5.004-11.609-8.395-16.945
						l-0.001-0.002c-0.185-0.293-0.376-0.585-0.563-0.874c-8.14-12.554-19.1-22.604-31.911-29.557
						c-6.954-3.774-14.459-6.632-22.363-8.473c-0.064-0.015-0.128-0.03-0.193-0.045c-0.199-0.044-0.393-0.091-0.59-0.133
						c-23.153-5.17-46.935-1.018-66.963,11.698c-2.594,1.644-5.08,3.407-7.461,5.279c-16.014,12.602-27.115,30.183-31.62,50.341
						c-5.17,23.153-1.013,46.932,11.7,66.958c12.713,20.01,32.468,33.906,55.619,39.082c23.153,5.17,46.935,1.018,66.963-11.698
						c2.55-1.616,5.007-3.359,7.363-5.212c10.217-8.041,18.558-18.224,24.392-29.853c0.361-0.717,0.859-1.316,1.452-1.779
						c1.555-1.223,3.741-1.518,5.627-0.57c2.6,1.314,3.657,4.474,2.348,7.083c-6.529,13.011-15.863,24.408-27.288,33.403
						c-2.639,2.077-5.386,4.025-8.237,5.834c-22.411,14.226-49.016,18.873-74.922,13.086c-25.9-5.788-48.008-21.291-62.224-43.72
						c-14.227-22.407-18.875-49.011-13.085-74.916c5.035-22.551,17.455-42.22,35.373-56.319c2.66-2.093,5.445-4.068,8.343-5.908
						C2683.006,1079.688,2739.814,1090.064,2770.928,1129.614z"/>
				</g>
			</g>
		</g>
		<g>
			<g>
				
					<linearGradient id="SVGID_00000035488861741058454120000000050243521206253722_" gradientUnits="userSpaceOnUse" x1="1953.4053" y1="865.1567" x2="1795.7101" y2="2757.5161">
					<stop  offset="0" style="stop-color:#2B3582"/>
					<stop  offset="1" style="stop-color:#150E42"/>
				</linearGradient>
				<path style="fill:url(#SVGID_00000035488861741058454120000000050243521206253722_);" d="M630.744,2653.808
					c0,24.471,20.041,44.492,44.535,44.492h2408.267c24.494,0,44.535-20.021,44.535-44.492l20.039-1383.965
					c0-24.47-28.83-72.243-81.667-68.654l-2353.624-60.9c-30.733-0.795-60.448,11.034-82.212,32.726
					c-21.763,21.693-33.672,51.351-32.945,82.056L630.744,2653.808z"/>
				
					<linearGradient id="SVGID_00000160172580026475484650000007365661030584326566_" gradientUnits="userSpaceOnUse" x1="-51.8965" y1="3020.1274" x2="3759.989" y2="841.9056">
					<stop  offset="0" style="stop-color:#53D8FF"/>
					<stop  offset="0.2057" style="stop-color:#4DB9FD"/>
					<stop  offset="1" style="stop-color:#3840F7"/>
				</linearGradient>
				<path style="fill:url(#SVGID_00000160172580026475484650000007365661030584326566_);" d="M674.711,2611.123
					c0,23.173,18.96,42.133,42.133,42.133h2308.625c23.173,0,42.133-18.96,42.133-42.133l18.91-1256.376
					c-2.227-75.606-68.512-102.779-108.693-101.175l-2255.734-60.518c-21.591-0.579-42.467,7.74-57.759,22.993
					c-15.292,15.253-23.703,36.128-23.161,57.72L674.711,2611.123z"/>
				<g>
					<path style="fill:#FFFFFF;" d="M3042.655,2014.257c-0.031,0-0.062,0-0.092,0c-3.411-0.049-6.135-2.854-6.083-6.268
						l1.495-101.89c0.049-3.377,2.804-6.083,6.169-6.083c0.031,0,0.062,0,0.092,0c3.411,0.049,6.135,2.854,6.083,6.268
						l-1.495,101.89C3048.775,2011.551,3046.021,2014.257,3042.655,2014.257z"/>
					<path style="fill:#FFFFFF;" d="M3046.323,1764.574c-0.031,0-0.062,0-0.093,0c-3.411-0.049-6.135-2.86-6.083-6.268
						l5.729-390.241c-0.108-23.18-7.143-41.688-20.915-54.883c-25.707-24.628-66.519-23.371-68.239-23.291l-720.982-19.334
						c-3.408-0.086-6.098-2.927-6.006-6.336c0.089-3.408,2.709-6.311,6.339-6.003l720.554,19.334
						c4.484-0.265,47.937-1.017,76.876,26.711c16.28,15.599,24.597,37.09,24.721,63.863l-5.732,390.364
						C3052.442,1761.868,3049.688,1764.574,3046.323,1764.574z"/>
				</g>
				
					<linearGradient id="SVGID_00000100385035919093444730000014138469715322503340_" gradientUnits="userSpaceOnUse" x1="1857.5636" y1="2512.7021" x2="1843.8235" y2="3797.3306">
					<stop  offset="0" style="stop-color:#2B3582"/>
					<stop  offset="1" style="stop-color:#150E42"/>
				</linearGradient>
				<path style="fill:url(#SVGID_00000100385035919093444730000014138469715322503340_);" d="M441.028,2813.186h2827.944
					c3.11,0,5.654-2.544,5.654-5.654V2697.24c0-3.109-2.544-5.654-5.654-5.654H441.028c-3.11,0-5.654,2.544-5.654,5.654v110.292
					C435.374,2810.642,437.918,2813.186,441.028,2813.186z"/>
			</g>
		</g>
		<g>
			<g style="opacity:0.6;">
				<g style="opacity:0.8;">
					<path style="fill:#FFFFFF;" d="M2310.65,1701.013c-5.127-6.303-13.168-8.919-21.698-8.74l-776.571,16.291l-19.617-62.313
						c-2.727-8.681-10.89-14.24-20.123-13.998l-106.622,2.802c-11.433,0.3-20.692,8.25-20.692,19.661
						c0,11.411,9.259,18.899,20.692,18.629l91.115-2.153l164.87,526.833c2.776,8.867,11.1,14.966,20.537,15.093l545.071,7.318
						c12.792,0.172,23.177-7.856,23.177-19.951c0-12.093-10.385-20.375-23.177-20.513l-529.167-5.704l-42.47-136.787l581.51,0.882
						c11.906,0.018,22.401-7.774,25.738-18.579l91.779-296.752C2317.396,1715.29,2315.783,1707.32,2310.65,1701.013z"/>
					<path style="fill:#FFFFFF;" d="M1722.281,2245.613c-44.848-0.697-81.131,34.209-81.131,77.808s36.283,80.021,81.131,81.199
						c45.118,1.185,82.028-33.706,82.028-77.787C1804.309,2282.75,1767.399,2246.314,1722.281,2245.613z M1722.281,2362.217
						c-20.961-0.491-37.973-17.49-37.973-37.894c0-20.406,17.011-36.694,37.973-36.308c21.02,0.387,38.167,17.389,38.167,37.9
						C1760.448,2346.424,1743.301,2362.709,1722.281,2362.217z"/>
					<path style="fill:#FFFFFF;" d="M2085.632,2251.262c-47.07-0.732-85.147,35.01-85.147,79.672
						c0,44.661,38.077,81.995,85.147,83.231c47.361,1.244,86.11-34.483,86.11-79.651
						C2171.742,2289.346,2132.993,2251.998,2085.632,2251.262z M2085.632,2370.724c-22-0.515-39.854-17.94-39.854-38.843
						c0-20.905,17.854-37.583,39.854-37.178c22.064,0.406,40.064,17.834,40.064,38.848
						C2125.696,2354.565,2107.696,2371.24,2085.632,2370.724z"/>
				</g>
			</g>
			<path style="fill:#FFFFFF;" d="M1865.913,2610.344c-373.55,0-677.456-303.902-677.456-677.452s303.906-677.456,677.456-677.456
				s677.456,303.906,677.456,677.456S2239.463,2610.344,1865.913,2610.344z M1865.913,1309.891
				c-343.524,0-623.001,279.477-623.001,623.001c0,343.521,279.477,622.998,623.001,622.998s623.001-279.477,623.001-622.998
				C2488.914,1589.368,2209.437,1309.891,1865.913,1309.891z"/>
			
				<rect x="1218.204" y="1900.621" transform="matrix(0.7245 -0.6893 0.6893 0.7245 -816.1736 1813.7206)" style="fill:#FFFFFF;" width="1285.145" height="54.454"/>
		</g>
		<g>
			
				<linearGradient id="SVGID_00000158729582146347082950000012396466664672200335_" gradientUnits="userSpaceOnUse" x1="-590.141" y1="3192.7566" x2="-418.5299" y2="3192.7566" gradientTransform="matrix(-1 0 0 1 2260.3882 0)">
				<stop  offset="0" style="stop-color:#53D8FF"/>
				<stop  offset="1" style="stop-color:#3840F7"/>
			</linearGradient>
			<path style="fill:url(#SVGID_00000158729582146347082950000012396466664672200335_);" d="M2683.764,3184.456
				c29.399,2.541,80.422,6.669,120.647,8.439c24.18,1.064,38.101-1.303,46.118-4.513c-0.013,0.904-0.039,1.758-0.074,2.551
				c-0.19,4.232-3.63,7.619-7.905,7.858c-76.007,4.242-136.454,1.468-157.974,0.158c-4.45-0.271-7.102-5.107-4.826-8.9
				C2680.888,3188.153,2682.267,3186.294,2683.764,3184.456z"/>
			
				<linearGradient id="SVGID_00000101816001093327921490000007771642189242875544_" gradientUnits="userSpaceOnUse" x1="-590.1508" y1="3159.123" x2="-423.3758" y2="3159.123" gradientTransform="matrix(-1 0 0 1 2260.3882 0)">
				<stop  offset="0" style="stop-color:#2B3582"/>
				<stop  offset="1" style="stop-color:#150E42"/>
			</linearGradient>
			<path style="fill:url(#SVGID_00000101816001093327921490000007771642189242875544_);" d="M2804.411,3192.896
				c-40.225-1.77-91.248-5.898-120.647-8.439c28.904-35.462,120.647-59.364,120.647-59.364h25.911
				c17.821,25.689,20.402,50.147,20.207,63.29C2842.512,3191.592,2828.591,3193.96,2804.411,3192.896z"/>
			
				<linearGradient id="SVGID_00000088133079907204301500000010553490387242114722_" gradientUnits="userSpaceOnUse" x1="-574.2972" y1="3112.166" x2="-525.958" y2="3112.166" gradientTransform="matrix(-1 0 0 1 2260.3882 0)">
				<stop  offset="0" style="stop-color:#F9B776"/>
				<stop  offset="1" style="stop-color:#F47960"/>
			</linearGradient>
			<path style="fill:url(#SVGID_00000088133079907204301500000010553490387242114722_);" d="M2834.686,3082.791l-2.425,47.983
				c-0.262,5.196-4.152,9.562-9.356,10.306c-5.177,0.74-12.111,0.835-19.464-1.613c-4.523-1.506-7.882-5.317-8.716-9.966
				l-8.379-46.71H2834.686z"/>
			<g>
				
					<linearGradient id="SVGID_00000039823184867666163090000004337393916950443449_" gradientUnits="userSpaceOnUse" x1="-896.444" y1="3235.3108" x2="-830.6798" y2="3235.3108" gradientTransform="matrix(-1 0 0 1 2260.3882 0)">
					<stop  offset="0" style="stop-color:#53D8FF"/>
					<stop  offset="1" style="stop-color:#3840F7"/>
				</linearGradient>
				<path style="fill:url(#SVGID_00000039823184867666163090000004337393916950443449_);" d="M3135.418,3239.809
					c12.749-2.298,18.518-10.858,20.936-20.009c0.016,0.082,0.032,0.165,0.048,0.246c1.875,9.653-2.473,19.657-11.166,24.415
					c-10.508,5.751-21.996,6.731-30.915,6.256c-9.569-0.51-18.353-5.628-23.18-13.818l-0.072-0.123
					C3100.673,3242.918,3114.156,3243.641,3135.418,3239.809z"/>
				
					<linearGradient id="SVGID_00000101814578369475806280000009497272118530796441_" gradientUnits="userSpaceOnUse" x1="-895.9656" y1="3169.8674" x2="-799.4366" y2="3169.8674" gradientTransform="matrix(-1 0 0 1 2260.3882 0)">
					<stop  offset="0" style="stop-color:#2B3582"/>
					<stop  offset="1" style="stop-color:#150E42"/>
				</linearGradient>
				<path style="fill:url(#SVGID_00000101814578369475806280000009497272118530796441_);" d="M3075.308,3097.575h21.368
					c32.549-0.859,52.988,87.865,59.678,122.225c-2.419,9.151-8.187,17.71-20.936,20.009c-21.262,3.832-34.745,3.109-44.35-3.033
					c-17.584-29.906-26.302-73.707-30.493-99.269C3055.809,3108.435,3075.308,3097.575,3075.308,3097.575z"/>
			</g>
			
				<linearGradient id="SVGID_00000121277778073974130340000004144811048462157483_" gradientUnits="userSpaceOnUse" x1="-845.7913" y1="3086.959" x2="-788.0209" y2="3086.959" gradientTransform="matrix(-1 0 0 1 2260.3882 0)">
				<stop  offset="0" style="stop-color:#F9B776"/>
				<stop  offset="1" style="stop-color:#F47960"/>
			</linearGradient>
			<path style="fill:url(#SVGID_00000121277778073974130340000004144811048462157483_);" d="M3093.929,3053.038l11.866,47.193
				c1.455,5.787-1.315,11.771-6.664,14.517c-6.638,3.406-15.983,6.986-24.572,5.95c-4.039-0.487-7.395-3.332-8.729-7.136
				l-17.42-49.652L3093.929,3053.038z"/>
			
				<linearGradient id="SVGID_00000003075652978315382170000017387848479888338342_" gradientUnits="userSpaceOnUse" x1="2876.4446" y1="2328.5293" x2="2904.8174" y2="3215.1987">
				<stop  offset="0" style="stop-color:#CE1567"/>
				<stop  offset="1" style="stop-color:#7A1DBC"/>
			</linearGradient>
			<path style="fill:url(#SVGID_00000003075652978315382170000017387848479888338342_);" d="M2676.526,2431.476
				c0,0,106.037,662.819,104.29,666.462c0,0,29.286,13.311,61.213,1.696c0,0-9.588-354.324-32.057-490.18
				c0,0,180.968,316.696,238.437,474.499c0,0,29.974-3.574,54.785-19.903c0,0-194.852-570.038-246.837-645.964L2676.526,2431.476z"
				/>
			
				<linearGradient id="SVGID_00000114788351120458984690000006772804002537102258_" gradientUnits="userSpaceOnUse" x1="3103.4185" y1="1579.6079" x2="2791.3103" y2="2508.8367">
				<stop  offset="0" style="stop-color:#CE1567"/>
				<stop  offset="1" style="stop-color:#7A1DBC"/>
			</linearGradient>
			<path style="fill:url(#SVGID_00000114788351120458984690000006772804002537102258_);" d="M2805.739,2606.003
				c0.569,0,1.143-0.152,1.658-0.476c1.467-0.919,1.911-2.851,0.994-4.315l-39.626-63.293c-0.458-0.729-1.194-1.241-2.036-1.411
				l-29.161-5.869c-1.705-0.336-3.348,0.762-3.69,2.452c-0.339,1.697,0.759,3.348,2.452,3.691l27.84,5.601l38.912,62.15
				C2803.676,2605.482,2804.697,2606.003,2805.739,2606.003z"/>
			
				<linearGradient id="SVGID_00000029015240441679968830000006728690970887913892_" gradientUnits="userSpaceOnUse" x1="-51.1859" y1="1870.0869" x2="-279.989" y2="2167.7534" gradientTransform="matrix(-1 0 0 1 2260.3882 0)">
				<stop  offset="0" style="stop-color:#F9B776"/>
				<stop  offset="1" style="stop-color:#F47960"/>
			</linearGradient>
			<path style="fill:url(#SVGID_00000029015240441679968830000006728690970887913892_);" d="M2189.93,1782.433
				c0,0,71.552,15.781,115.071,35.875c8.644,3.991,15.538,10.969,19.464,19.569c13.016,28.512,51.957,100.008,127.478,134.127
				c-10.875,14.435-28.387,44.462-36.016,94.93c-45.359-33.76-84.517-90.14-103.317-182.605c0,0-14.316,7.782-32.175-0.891
				c-9.435-4.583-20.33-11.082-28.508-16.194c-8.148-5.093-14.217-13.011-16.574-22.258c-3.113-12.21-1.279-22.948-1.279-34.466
				l-36.779-11.395C2197.296,1799.124,2186.24,1794.951,2189.93,1782.433z"/>
			
				<linearGradient id="SVGID_00000133520358843377914840000015006496746430437554_" gradientUnits="userSpaceOnUse" x1="-322.6126" y1="1939.8149" x2="-1086.4999" y2="2845.1628" gradientTransform="matrix(-1 0 0 1 2260.3882 0)">
				<stop  offset="0" style="stop-color:#FDF53F"/>
				<stop  offset="1" style="stop-color:#D93C65"/>
			</linearGradient>
			<path style="fill:url(#SVGID_00000133520358843377914840000015006496746430437554_);" d="M2415.927,2066.933
				c7.629-50.468,25.14-80.495,36.016-94.93c46.915,21.196,107.941,27.972,185.653,1.044c7.163-2.482,14.635-3.936,22.212-4.38
				c41.37-2.426,177.697-6.852,290.504,30.418c23.741,7.844,42.97,25.394,52.88,48.136c30.516,70.029,79.92,229.51-57.232,310.025
				c-10.537-26.161-22.699-47.19-33.099-62.64c22.087-37.255,28.629-88.139-10.566-154.401
				c-28.579,77.171-41.987,189.773-44.789,239.606c-0.923,16.407,1.956,32.782,8.393,47.93l0.702,1.652
				c1.378,3.241-0.518,6.966-3.984,7.745c-77.211,17.344-157.517,12.632-181.509,10.65c-4.283-0.354-7.842-3.418-8.824-7.558
				c-37.545-158.202-37.631-266.117-28.439-334.336C2608.724,2113.745,2501.326,2130.493,2415.927,2066.933z"/>
			
				<linearGradient id="SVGID_00000138538182618751409260000010799854548895647394_" gradientUnits="userSpaceOnUse" x1="2350.708" y1="1384.4974" x2="2889.8013" y2="2569.0835">
				<stop  offset="0" style="stop-color:#FDF53F"/>
				<stop  offset="1" style="stop-color:#D93C65"/>
			</linearGradient>
			<path style="fill:url(#SVGID_00000138538182618751409260000010799854548895647394_);" d="M2643.694,2110.147
				c1.548,0,2.893-1.146,3.101-2.72c8.819-66.609,26.774-95.678,26.953-95.963c0.923-1.461,0.488-3.396-0.973-4.322
				c-1.455-0.917-3.39-0.491-4.315,0.967c-0.768,1.205-18.849,30.313-27.873,98.496c-0.226,1.714,0.979,3.289,2.694,3.515
				C2643.42,2110.138,2643.557,2110.147,2643.694,2110.147z"/>
			
				<linearGradient id="SVGID_00000168821894322803673760000006706765523021188999_" gradientUnits="userSpaceOnUse" x1="-561.1827" y1="2062.4731" x2="-536.1513" y2="1931.0583" gradientTransform="matrix(-1 0 0 1 2260.3882 0)">
				<stop  offset="0" style="stop-color:#F9B776"/>
				<stop  offset="1" style="stop-color:#F47960"/>
			</linearGradient>
			<path style="fill:url(#SVGID_00000168821894322803673760000006706765523021188999_);" d="M2834.238,1876.508
				c0,0,7.811,82.587,14.688,107.017c1.043,3.706-0.567,7.614-3.934,9.538c-11.672,6.669-39.667,17.548-77.961-1.219
				c-6.204-3.04-9.933-9.507-9.644-16.351l3.374-79.806L2834.238,1876.508z"/>
			<g>
				
					<linearGradient id="SVGID_00000088131243441256018750000010060722032228662719_" gradientUnits="userSpaceOnUse" x1="-493.4513" y1="1821.3685" x2="-636.2708" y2="1930.6472" gradientTransform="matrix(-1 0 0 1 2260.3882 0)">
					<stop  offset="0" style="stop-color:#F9B776"/>
					<stop  offset="1" style="stop-color:#F47960"/>
				</linearGradient>
				<path style="fill:url(#SVGID_00000088131243441256018750000010060722032228662719_);" d="M2759.077,1770.853
					c0,0-24.983,57.39-26.661,87.512c-1.678,30.122-8.169,49.668,26.661,55.733c34.829,6.066,64.17-11.285,80.065-41.29
					c0,0,24.905-46.235,19.318-65.169C2852.873,1788.705,2759.077,1770.853,2759.077,1770.853z"/>
				
					<linearGradient id="SVGID_00000008106986097697688240000008698684782198066618_" gradientUnits="userSpaceOnUse" x1="-593.9899" y1="1734.8438" x2="-460.9761" y2="1906.0988" gradientTransform="matrix(-1 0 0 1 2260.3882 0)">
					<stop  offset="0" style="stop-color:#2B3582"/>
					<stop  offset="1" style="stop-color:#150E42"/>
				</linearGradient>
				<path style="fill:url(#SVGID_00000008106986097697688240000008698684782198066618_);" d="M2827.24,1851.235l-1.983-0.874
					c-2.524-1.113-3.604-4.117-2.336-6.567c4.911-9.49,14.486-31.235,2.117-36.308c-15.94-6.538-79.083-19.414-92.706-41.819
					c-13.093-21.533-1.492-49.329,15.943-57.235c1.167-0.529,2.542-0.109,3.141,1.023l1.453,2.749
					c0.995,1.882,3.774,1.597,4.366-0.448c0.568-1.963,3.179-2.344,4.261-0.611c4.188,6.703,15.493,17.57,45.727,23.15
					c42.968,7.93,71.375,25.318,72.083,55.01c0.045,1.886,2.052,2.935,3.663,1.953c3.173-1.933,8.25-2.841,15.035,2.865
					c11.8,9.922,6.971,35.661-18.897,56.833c-1.229,1.006-1.219,2.924,0.112,3.791c4.69,3.053,11.681,10.317-6.434,20
					c-18.737,10.016-32.728,9.194-38.115,8.305c-1.34-0.221-2.204-1.519-1.912-2.845l5.75-26.096
					c0.325-1.477-0.799-2.876-2.311-2.876H2827.24z"/>
				
					<linearGradient id="SVGID_00000179648117900413401480000001143270678522049709_" gradientUnits="userSpaceOnUse" x1="-511.1664" y1="1798.2161" x2="-653.9861" y2="1907.4949" gradientTransform="matrix(-1 0 0 1 2260.3882 0)">
					<stop  offset="0" style="stop-color:#F9B776"/>
					<stop  offset="1" style="stop-color:#F47960"/>
				</linearGradient>
				<path style="fill:url(#SVGID_00000179648117900413401480000001143270678522049709_);" d="M2826.158,1856.742
					c0,0,9.531-36.66,25.967-26.381s-8.529,41.076-21.743,42.448L2826.158,1856.742z"/>
			</g>
			<path style="fill:#F8A570;" d="M2293.528,1875.8c0.693,0,1.393-0.229,1.973-0.702c1.342-1.089,1.545-3.063,0.452-4.405
				c-2.705-3.331-26.718-32.688-35.968-37.912c-3.366-1.902-5.372-3.866-5.798-5.679c-0.205-0.866-0.068-1.839,0.42-2.947
				l28.212,5.655l15.986,13.715c1.307,1.128,3.289,0.979,4.414-0.336c1.128-1.313,0.976-3.289-0.336-4.417l-16.604-14.25
				c-0.408-0.348-0.896-0.586-1.423-0.693l-31.233-6.259c-1.253-0.253-2.509,0.274-3.214,1.321
				c-2.289,3.396-3.048,6.554-2.315,9.649c0.863,3.658,3.744,6.83,8.813,9.694c6.958,3.932,27.039,27.617,34.191,36.411
				C2291.713,1875.407,2292.617,1875.8,2293.528,1875.8z"/>
			
				<linearGradient id="SVGID_00000057850517080553364660000005818564997637576576_" gradientUnits="userSpaceOnUse" x1="-427.4315" y1="2155.8298" x2="-527.3942" y2="2305.7739" gradientTransform="matrix(-1 0 0 1 2260.3882 0)">
				<stop  offset="0" style="stop-color:#F9B776"/>
				<stop  offset="1" style="stop-color:#F47960"/>
			</linearGradient>
			<path style="fill:url(#SVGID_00000057850517080553364660000005818564997637576576_);" d="M2827.371,2396.937l-110.429,1.366
				l38.649-36.38c9.606-9.042,24.269-10.507,35.358-3.315c6.493,4.211,13.534,9.928,19.634,17.497c0,0,68.885-25.175,102.279-81.5
				c10.4,15.45,22.562,36.479,33.099,62.64C2916.025,2374.82,2877.219,2388.639,2827.371,2396.937z"/>
			<g>
				
					<linearGradient id="SVGID_00000137825261261636038100000004432578376230416293_" gradientUnits="userSpaceOnUse" x1="-1894.5851" y1="2301.041" x2="-2120.4153" y2="2362.9353" gradientTransform="matrix(0.9988 -0.0494 0.0494 0.9988 4641.6553 -55.0328)">
					<stop  offset="0" style="stop-color:#2B3582"/>
					<stop  offset="1" style="stop-color:#150E42"/>
				</linearGradient>
				<path style="fill:url(#SVGID_00000137825261261636038100000004432578376230416293_);" d="M2815.473,2411.179
					c-0.214,0.01-0.429,0.016-0.645,0.015l-280.313-0.303c-6.929-0.006-12.541-5.57-12.534-12.426
					c0.007-6.859,5.651-12.524,12.562-12.401l280.313,0.303c6.929,0.006,12.541,5.57,12.534,12.426
					C2827.382,2405.435,2822.102,2410.854,2815.473,2411.179z"/>
				
					<linearGradient id="SVGID_00000052067930468351605900000001134464515671465877_" gradientUnits="userSpaceOnUse" x1="-2126.356" y1="2192.7336" x2="-2285.6506" y2="2361.0981" gradientTransform="matrix(1 0 0 1 4683.124 0)">
					<stop  offset="0" style="stop-color:#2B3582"/>
					<stop  offset="1" style="stop-color:#150E42"/>
				</linearGradient>
				<path style="fill:url(#SVGID_00000052067930468351605900000001134464515671465877_);" d="M2282.527,2159.361h233.446
					c17.221,0,32.896,9.833,40.242,25.245l107.922,226.425h-290.112c-11.098,0-21.069-6.709-25.148-16.921l-83.689-209.523
					C2260.353,2172.48,2269.37,2159.361,2282.527,2159.361z"/>
				
					<linearGradient id="SVGID_00000059304395661849762560000014409965580830957977_" gradientUnits="userSpaceOnUse" x1="-2222.949" y1="2234.8149" x2="-2294.9551" y2="2343.2476" gradientTransform="matrix(1 0 0 1 4683.124 0)">
					<stop  offset="0" style="stop-color:#53D8FF"/>
					<stop  offset="1" style="stop-color:#3840F7"/>
				</linearGradient>
				<path style="fill:url(#SVGID_00000059304395661849762560000014409965580830957977_);" d="M2446.992,2275.456
					c5.059,15.551,1.322,30.654-8.347,33.733c-9.669,3.079-21.608-7.031-26.667-22.582s-1.322-30.654,8.347-33.733
					C2429.994,2249.794,2441.933,2259.905,2446.992,2275.456z"/>
			</g>
		</g>
	</g>
</g>
</svg>
